<svg id="レイヤー_1" data-name="レイヤー 1" xmlns="http://www.w3.org/2000/svg" viewBox="0 0 420.14 284.74"><defs><style>.cls-1{fill:#231815;}.cls-2{fill:#ff8355;}.cls-3{fill:#00c4b5;}</style></defs><path class="cls-1" d="M696,393.63" transform="translate(-384.17 -355.19)"/><path class="cls-2" d="M631.32,374.93h.54c96.32,4.65,172.45,62.13,172.45,132.35,0,33.2-17.06,63.53-45.19,86.8,2.53,12.36,15.27,29.91,32,34.74a93.75,93.75,0,0,1-37.71,7.51c-17.46,0-35-4.15-50.92-10.58a245.26,245.26,0,0,1-83.21,14.17c-39.93,0-79.87-9.21-113.07-27.62-8.37-4.64-8.93-17.57-1.08-23.2l94.77-67.93c12.09-8.66,19.38-23.47,19.38-39.35V388.36c0-7.39,5.43-13.43,12.07-13.43" transform="translate(-384.17 -355.19)"/><path class="cls-3" d="M590.41,355.19c6.65,0,12.07,6,12.07,13.43V462.1c0,15.87-7.29,30.68-19.39,39.34l-104.62,75a11.52,11.52,0,0,1-6.71,2.2,11.19,11.19,0,0,1-7-2.49,143.35,143.35,0,0,1-25.4-26c-4.65,2.17-11.38,3.43-18.75,3.43-12.72,0-27.33-3.76-36.44-13,13.56-1.75,31.91-14.5,37-26.44a96.68,96.68,0,0,1-3.77-26.59c0-70.22,76.13-127.7,172.46-132.34l.53,0" transform="translate(-384.17 -355.19)"/></svg>