<svg id="レイヤー_1" data-name="レイヤー 1" xmlns="http://www.w3.org/2000/svg" viewBox="0 0 677.44 402.78"><defs><style>.cls-1{fill:#231815;}.cls-2{fill:#00c4b5;}.cls-3{fill:#ff8355;}</style></defs><path class="cls-1" d="M334.84,694.19l.6,8.45H345v6h-15l-1-14.41H321l-2.22,14.41h-6.14l2.22-14.41h-9.52v-6h10.38l1-6.38h-1.4v-5.77l-6.5,7.66H301l8.27-9.79-5.67-5.11,3.95-4.44,5.55,5,4.86-5.71h-9.84v-6H330.8L315.42,675.9h20.36v6H334l.45,6.38H345v6Zm-5.44-33.37,4.26,4.13,5.53-5.71,4.25,4.13-5.53,5.72,2.55,2.55,6-6.14,4.26,4.14-6,6.2L352,683h-8.51l-17.87-17.57Z" transform="translate(-301.01 -310.69)"/><path class="cls-1" d="M409.15,673.1H365v-6h44.13Zm-9.57,8.07h-25v-6h25Zm0,7.48h-25v-6h25Zm.39-23H374.2v-5.95H400Z" transform="translate(-301.01 -310.69)"/><path class="cls-1" d="M456.25,664.12l3.85,25.09h-5.6l-3.84-25.09Z" transform="translate(-301.01 -310.69)"/><path class="cls-1" d="M491.44,667.81h6.63L489.8,683h6v-3.64h5.23v9.41h-7.54V708.6H488V688.72h-7.9ZM483.69,678,478.92,675l9.89-18.11h6.32Zm-3.25,30.63V690.93h5.39V708.6Zm15.38-17.67h5V708.6h-5Zm14.46,13.8v-6l11.13,4.07v6Zm.16-16.05,11,4v6l-11-4Zm-2.55-14.93h0l-6.14-.18,6.08-13.29,19.31.18-6.84,17.3,8.59,7.13-.06,6.87-12-9.53-13.4,9.88v-7l9.36-6.93Z" transform="translate(-301.01 -310.69)"/><path class="cls-1" d="M564.6,669.57h16.8c6.13,0,9.67,3.12,9.67,9.18v18.82c0,3-.79,5.41-2.31,7s-3.89,2.62-6.87,2.62h-9.26v-5.53h9.26a3.8,3.8,0,0,0,2.8-.79,5.22,5.22,0,0,0,.85-3.35V678.75c0-2.24-1.59-3.64-4.14-3.64H567.54L555.2,688.9v19.7h-5.59V698.46H541l7.62-16.85H541V675h8.57V664.2h5.59v15.74Zm-119.33,12-2.06-3.48H432.56V708.6H427V678.07h-5.49v-5.53H427v-8.42h5.59v8.42h13.75l4.49,7.36v19a10.09,10.09,0,0,1-2.3,7.05c-1.59,1.77-3.9,2.62-6.87,2.62h-4.51v-5.53h4.51a3.77,3.77,0,0,0,2.79-.79,5.22,5.22,0,0,0,.85-3.35Z" transform="translate(-301.01 -310.69)"/><path class="cls-1" d="M640.13,700.89a7.21,7.21,0,0,1-2.86,5.89,10.76,10.76,0,0,1-6.44,1.89h-9.2v-5.54h9.2c2.49,0,3.77-1.31,3.77-4.29v-7.68c0-2.24-1.59-3.64-4.14-3.64h-8.07l-7.54,4.73H609V669.53h5.53V685.8l6.33-3.81h9.59c6.13,0,9.67,3.11,9.67,9.17v9.73Zm-9.23-30V667h-7.84v-5.53h13.86v9.36Z" transform="translate(-301.01 -310.69)"/><path class="cls-1" d="M675.42,674.13H666v14.24h-5.84V674.13h-4.84V668.6h4.84v-4.4H666v4.4h9.43Zm2.18,18.54h5.78V669h11.73v5.54h-6.2v18.15h6.2v5.53h-6.2V702a6.79,6.79,0,0,1-1.58,4.32,5.94,5.94,0,0,1-4.62,2.31H671.4v-9.3A6.79,6.79,0,0,1,673,695,5.94,5.94,0,0,1,677.6,692.67Zm5.78,9V698.2h-4.92a1.52,1.52,0,0,0-1.53,1.4v3.47h5.26A1.29,1.29,0,0,0,683.38,701.66Z" transform="translate(-301.01 -310.69)"/><path class="cls-1" d="M719.87,697.44h7.54v5.44H714.52v-34h5.35Zm36.47-1.67h-5.41V669h5.41Z" transform="translate(-301.01 -310.69)"/><path class="cls-1" d="M778.23,708.6l18.5-44.4h6.2l-18.39,44.4Z" transform="translate(-301.01 -310.69)"/><path class="cls-1" d="M809.35,696l-35.91-15v-6.2l35.91,14.88Z" transform="translate(-301.01 -310.69)"/><path class="cls-1" d="M821.38,686.23v-5.71h42.31v5.71Z" transform="translate(-301.01 -310.69)"/><path class="cls-1" d="M891.3,667.45l-8.15,13.67h-6.68l11.61-19.39h36.65L896.19,708.6H889.5L896,698.2l-9.18-16.41h6.51l6.07,10.76,15.14-25.1Z" transform="translate(-301.01 -310.69)"/><path class="cls-1" d="M936.15,686.23v-5.71h42.3v5.71Z" transform="translate(-301.01 -310.69)"/><polygon class="cls-1" points="471.16 392.2 483.52 392.2 483.52 397.91 469.02 397.91 471.16 392.2"/><path class="cls-1" d="M696.82,349.12" transform="translate(-301.01 -310.69)"/><path class="cls-2" d="M475.39,565.68C462.05,554.56,438,527.84,438,527.84s-2.35-.35-5.37-.64c-15.37,10-25.22,25.47-25.22,42.78a45,45,0,0,0,1.17,10.15h0c-2.54,6-11.68,12.3-18.43,13.17,7,7.09,20.37,7.69,26.92,5,11.78,15.88,33.15,26.49,57.56,26.49,24.58,0,46.07-10.76,57.79-26.82C510.74,590,491.42,579,475.39,565.68Z" transform="translate(-301.01 -310.69)"/><path class="cls-3" d="M874.24,523.91h0c13.61-12.23,21.91-28.46,21.91-46.28,0-38-37.79-68.83-84.4-68.83-1,0-2,0-3,.06a112.16,112.16,0,0,1,14,53.92c0,29.16-11.87,57.36-33.79,81.15a102.63,102.63,0,0,0,22.71,2.54A99.93,99.93,0,0,0,849,539.42c12.7,4.83,27.47,6.51,40.35.88C881.44,538,875.43,529.74,874.24,523.91Z" transform="translate(-301.01 -310.69)"/><rect class="cls-1" x="446.74" y="358.3" width="8.58" height="5.45"/><ellipse class="cls-3" cx="86.07" cy="391.38" rx="17.63" ry="11.4"/><path class="cls-3" d="M399.67,706.69c.75,3,1.95,4.52,4.66,5.62-6.42,1.82-9.95-2-9.95-2Z" transform="translate(-301.01 -310.69)"/><circle class="cls-2" cx="160.11" cy="358.93" r="5.4"/><circle class="cls-2" cx="168.98" cy="358.93" r="5.4"/><polygon class="cls-2" points="168.14 366.56 168.31 363.09 172.32 363.09 168.14 366.56"/><path class="cls-3" d="M632.18,330.43h.53c96.33,4.64,172.45,62.12,172.45,132.34,0,33.21-17.06,63.54-45.19,86.81,2.54,12.36,15.27,29.91,32,34.74a93.66,93.66,0,0,1-37.7,7.5c-17.46,0-35-4.15-50.92-10.57a245.5,245.5,0,0,1-83.21,14.17c-39.94,0-79.87-9.21-113.08-27.63-8.36-4.64-8.92-17.56-1.08-23.19l94.77-67.93c12.1-8.67,19.39-23.47,19.39-39.35V343.85c0-7.39,5.42-13.42,12.07-13.42" transform="translate(-301.01 -310.69)"/><path class="cls-2" d="M591.26,310.69c6.65,0,12.07,6,12.07,13.42v93.48c0,15.88-7.29,30.68-19.38,39.35l-104.63,75a11.47,11.47,0,0,1-6.7,2.2,11.16,11.16,0,0,1-7-2.48,143.08,143.08,0,0,1-25.4-26c-4.66,2.17-11.39,3.43-18.75,3.43-12.72,0-27.34-3.75-36.44-13,13.56-1.76,31.9-14.5,37-26.44a97.13,97.13,0,0,1-3.76-26.6c0-70.22,76.13-127.7,172.45-132.34h.53" transform="translate(-301.01 -310.69)"/></svg>