<svg id="レイヤー_1" data-name="レイヤー 1" xmlns="http://www.w3.org/2000/svg" viewBox="0 0 755.06 93.05"><defs><style>.cls-1{fill:#231815;}.cls-2{fill:#00c4b5;}.cls-3{fill:#ff8355;}</style></defs><path class="cls-1" d="M354.56,477.11" transform="translate(-262.2 -465.72)"/><path class="cls-2" d="M289,541.26c-4-3.3-11.08-11.21-11.08-11.21s-.7-.11-1.59-.19c-4.56,3-7.48,7.54-7.48,12.67a13.69,13.69,0,0,0,.35,3h0a8.07,8.07,0,0,1-5.46,3.9c2.06,2.1,6,2.27,8,1.48,3.48,4.7,9.81,7.85,17.05,7.85s13.64-3.19,17.11-7.95A57.58,57.58,0,0,1,289,541.26Z" transform="translate(-262.2 -465.72)"/><path class="cls-3" d="M407.12,528.88h0a18.43,18.43,0,0,0,6.49-13.7c0-11.27-11.19-20.39-25-20.39h-.87a33.34,33.34,0,0,1,4.15,16c0,8.63-3.51,17-10,24a30.17,30.17,0,0,0,6.73.76,29.66,29.66,0,0,0,11-2.09c3.77,1.43,8.14,1.93,12,.26A7.06,7.06,0,0,1,407.12,528.88Z" transform="translate(-262.2 -465.72)"/><path class="cls-3" d="M335.42,471.57h.15c28.54,1.38,51.09,18.4,51.09,39.21,0,9.83-5.06,18.82-13.39,25.71.75,3.66,4.53,8.86,9.47,10.29A27.65,27.65,0,0,1,371.57,549a40.59,40.59,0,0,1-15.08-3.13,72.67,72.67,0,0,1-24.65,4.2c-11.83,0-23.66-2.73-33.49-8.18A4.18,4.18,0,0,1,298,535l28.07-20.13a14.31,14.31,0,0,0,5.74-11.65V475.55a3.81,3.81,0,0,1,3.58-4" transform="translate(-262.2 -465.72)"/><path class="cls-2" d="M323.3,465.72a3.8,3.8,0,0,1,3.57,4v27.69a14.33,14.33,0,0,1-5.74,11.66l-31,22.21a3.45,3.45,0,0,1-2,.65,3.29,3.29,0,0,1-2.07-.73,42.74,42.74,0,0,1-7.53-7.7,13.58,13.58,0,0,1-5.55,1c-3.77,0-8.1-1.11-10.8-3.86,4-.52,9.46-4.3,11-7.83a28.91,28.91,0,0,1-1.12-7.88c0-20.8,22.56-37.83,51.09-39.2h.16" transform="translate(-262.2 -465.72)"/><path class="cls-1" d="M479.66,521.27l.5,7.06h8v5H475.54l-.86-12H468.1l-1.86,12h-5.13l1.86-12h-8v-5h8.67l.83-5.33h-1.17v-4.83l-5.43,6.4h-6.5l6.9-8.17-4.73-4.28,3.3-3.7,4.63,4.17,4.06-4.77h-8.22v-5h18.94L463.44,506h17v5h-1.52l.38,5.33h8.81v5Zm-4.54-27.87,3.55,3.45,4.62-4.77,3.56,3.45-4.62,4.77,2.13,2.14,5-5.13,3.55,3.45-5,5.18,6,5.94h-7.11l-14.93-14.67Z" transform="translate(-262.2 -465.72)"/><path class="cls-1" d="M541.73,503.65H504.87v-5h36.86Zm-8,6.75H512.87v-5h20.86Zm0,6.24H512.87v-5h20.86Zm.33-19.18H512.54v-5h21.52Z" transform="translate(-262.2 -465.72)"/><path class="cls-1" d="M581.07,496.15l3.22,21h-4.67l-3.22-21Z" transform="translate(-262.2 -465.72)"/><path class="cls-1" d="M610.47,499.24H616l-6.9,12.64h5v-3h4.36v7.86H612.2v16.61h-4.62V516.7H601ZM604,507.72l-4-2.44,8.26-15.13h5.28Zm-2.72,25.59V518.55h4.5v14.76Zm12.85-14.76h4.19v14.76h-4.19Zm12.08,11.53v-5l9.29,3.4v5Zm.13-13.41L635.5,520v5l-9.16-3.35Zm-2.13-12.47h0l-5.13-.16,5.08-11.1,16.13.15-5.71,14.46,7.17,5.95,0,5.74-10-8-11.2,8.25v-5.82l7.82-5.79Z" transform="translate(-262.2 -465.72)"/><path class="cls-1" d="M671.58,500.71h14c5.12,0,8.08,2.6,8.08,7.67V524.1a8.39,8.39,0,0,1-1.93,5.89,7.33,7.33,0,0,1-5.74,2.18h-7.74v-4.62H686a3.09,3.09,0,0,0,2.33-.66,4.36,4.36,0,0,0,.72-2.79V508.38c0-1.88-1.33-3.05-3.46-3.05H674l-10.31,11.53v16.45h-4.67v-8.47H651.9l6.37-14.08H651.9v-5.55h7.16v-9h4.67v13.15Zm-99.67,10-1.73-2.9h-8.89v25.5h-4.67v-25.5H552v-4.62h4.59v-7h4.67v7h11.48l3.76,6.14v15.9a8.39,8.39,0,0,1-1.93,5.89,7.33,7.33,0,0,1-5.74,2.19H565.1v-4.62h3.76a3.09,3.09,0,0,0,2.33-.67,4.34,4.34,0,0,0,.72-2.79Z" transform="translate(-262.2 -465.72)"/><path class="cls-1" d="M734.67,526.86a6.07,6.07,0,0,1-2.39,4.93,9,9,0,0,1-5.38,1.57h-7.68v-4.62h7.68c2.08,0,3.15-1.1,3.15-3.58v-6.42c0-1.87-1.33-3-3.46-3h-6.74l-6.3,3.95h-4.88v-19h4.62v13.6l5.29-3.19h8c5.12,0,8.08,2.6,8.08,7.66v8.12ZM727,501.77v-3.2h-6.55V494H732v7.82Z" transform="translate(-262.2 -465.72)"/><path class="cls-1" d="M764.14,504.52h-7.88v11.89h-4.87V504.52h-4V499.9h4v-3.68h4.87v3.68h7.88ZM766,520h4.82V500.22h9.8v4.62h-5.18V520h5.18v4.62h-5.18v3.15a5.68,5.68,0,0,1-1.32,3.61,5,5,0,0,1-3.86,1.93h-9.44v-7.77a5.68,5.68,0,0,1,1.32-3.61A4.94,4.94,0,0,1,766,520Zm4.82,7.51v-2.89h-4.11a1.27,1.27,0,0,0-1.27,1.17v2.9h4.39A1.07,1.07,0,0,0,770.79,527.51Z" transform="translate(-262.2 -465.72)"/><path class="cls-1" d="M801.27,524h6.3v4.54H796.8v-28.4h4.47Zm30.47-1.4h-4.52V500.22h4.52Z" transform="translate(-262.2 -465.72)"/><path class="cls-1" d="M850,533.31l15.46-37.09h5.17l-15.36,37.09Z" transform="translate(-262.2 -465.72)"/><path class="cls-1" d="M876,522.74l-30-12.52V505l30,12.43Z" transform="translate(-262.2 -465.72)"/><path class="cls-1" d="M886.07,514.62v-4.77H921.4v4.77Z" transform="translate(-262.2 -465.72)"/><path class="cls-1" d="M944.46,498.93l-6.8,11.43h-5.58l9.69-16.2h30.62l-23.84,39.15H943l5.47-8.69-7.67-13.7h5.43l5.08,9,12.64-21Z" transform="translate(-262.2 -465.72)"/><path class="cls-1" d="M981.93,514.62v-4.77h35.34v4.77Z" transform="translate(-262.2 -465.72)"/><polygon class="cls-1" points="582.76 62.81 593.08 62.81 593.08 67.58 580.97 67.58 582.76 62.81"/><rect class="cls-1" x="562.36" y="34.49" width="7.17" height="4.56"/><ellipse class="cls-3" cx="261.1" cy="62.13" rx="14.72" ry="9.53"/><path class="cls-3" d="M533.82,531.71c.62,2.55,1.62,3.78,3.89,4.7-5.37,1.52-8.32-1.72-8.32-1.72Z" transform="translate(-262.2 -465.72)"/><circle class="cls-2" cx="322.95" cy="35.03" r="4.51"/><circle class="cls-2" cx="330.35" cy="35.03" r="4.51"/><polygon class="cls-2" points="329.65 41.4 329.79 38.5 333.14 38.5 329.65 41.4"/></svg>